<svg width="38" height="33" xmlns="http://www.w3.org/2000/svg" xmlns:xlink="http://www.w3.org/1999/xlink" overflow="hidden"><defs><clipPath id="clip0"><rect x="639" y="571" width="38" height="33"/></clipPath></defs><g clip-path="url(#clip0)" transform="translate(-639 -571)"><path d="M29.0888-0.0344357 6.71305-0.0344357C3.03354-0.0344357-0.0493844 2.96556-0.0493844 6.76556L-0.0493844 30.7656C-0.0493844 31.2655 0.24901 31.6656 0.746196 31.8655 0.945091 31.9656 1.04459 31.9656 1.24349 31.9656 1.54178 31.9656 1.84007 31.8655 2.13846 31.5656L7.30973 26.6656 29.1882 26.6656C32.8678 26.6656 35.9506 23.6656 35.9506 19.8655L35.9506 6.66562C35.8512 2.96556 32.8678-0.0344357 29.0888-0.0344357L29.0888-0.0344357ZM33.365 19.8655C33.365 22.2655 31.4755 24.1656 29.0888 24.1656L6.71305 24.1656C6.41476 24.1656 6.11636 24.2655 5.81797 24.4656L2.43686 27.7656 2.43686 6.66562C2.43686 4.26551 4.32631 2.36556 6.71305 2.36556L29.0888 2.36556C31.4755 2.36556 33.365 4.26551 33.365 6.66562L33.365 19.8655ZM26.4037 9.06562 10.0943 9.06562C9.49758 9.06562 9.00039 9.56556 9.00039 10.1656 9.00039 10.7656 9.49758 11.2655 10.0943 11.2655L26.4037 11.2655C27.0003 11.2655 27.4976 10.7656 27.4976 10.1656 27.4976 9.56556 27.0998 9.06562 26.4037 9.06562ZM19.144 15.5656 10.1938 15.5656C9.59708 15.5656 9.09979 16.0656 9.09979 16.6656 9.09979 17.2655 9.59708 17.7656 10.1938 17.7656L19.144 17.7656C19.5418 17.7656 19.9396 17.5656 20.1385 17.1656 20.3374 16.7656 20.3374 16.3656 20.1385 16.0656 19.9396 15.7656 19.5418 15.5656 19.144 15.5656L19.144 15.5656Z" fill-rule="evenodd" transform="matrix(-1 0 0 1 676 571)"/></g></svg>